<?xml version="1.0" standalone="no"?>
<!DOCTYPE svg PUBLIC "-//W3C//DTD SVG 20010904//EN"
 "http://www.w3.org/TR/2001/REC-SVG-20010904/DTD/svg10.dtd">
<svg version="1.0" xmlns="http://www.w3.org/2000/svg"
 width="744.000000pt" height="744.000000pt" viewBox="0 0 744.000000 744.000000"
 preserveAspectRatio="xMidYMid meet">
<metadata>
Created by potrace 1.14, written by Peter Selinger 2001-2017
</metadata>
<g transform="translate(0.000000,744.000000) scale(0.100000,-0.100000)"
fill="#000000" stroke="none">
<path d="M4045 5803 c-44 -92 -114 -224 -155 -293 -75 -125 -257 -363 -270
-355 -4 3 -10 19 -14 37 -12 61 -118 354 -161 446 -24 51 -52 96 -62 100 -10
4 -48 7 -85 7 -56 0 -71 -4 -89 -21 -21 -21 -21 -24 -6 -70 28 -89 38 -157 44
-296 l6 -137 -29 9 c-16 5 -60 19 -99 31 -45 15 -97 23 -147 23 -84 1 -104 -9
-111 -54 -4 -22 -8 -24 -48 -21 -24 1 -114 21 -199 43 -335 86 -522 55 -690
-112 -36 -36 -83 -91 -103 -122 -21 -32 -45 -62 -55 -67 -9 -6 -12 -11 -5 -11
6 0 -5 -34 -27 -77 -60 -124 -56 -135 11 -34 100 149 101 150 281 210 314 104
528 127 686 76 90 -29 119 -45 85 -45 -26 0 -207 -35 -248 -49 -16 -5 -70 -21
-120 -36 -172 -53 -325 -147 -309 -190 12 -31 41 -30 219 10 142 32 155 33
155 19 0 -17 -50 -64 -68 -64 -7 0 -11 -4 -7 -9 3 -6 -17 -33 -44 -61 -27 -28
-64 -81 -82 -118 -75 -156 -153 -250 -344 -413 -226 -191 -259 -214 -371 -250
-155 -50 -170 -58 -190 -95 -10 -19 -21 -34 -24 -34 -4 0 -8 -22 -13 -73 -1
-10 -7 -15 -14 -13 -9 4 -13 -4 -14 -22 -1 -24 1 -261 3 -319 0 -13 5 -23 10
-23 6 0 8 -7 4 -15 -3 -8 -2 -15 2 -15 4 0 8 -8 9 -17 4 -42 12 -72 24 -94 7
-13 12 -28 11 -33 -2 -5 2 -12 7 -16 6 -3 12 -16 14 -28 2 -12 9 -28 15 -34 7
-7 12 -15 12 -19 0 -5 13 -27 29 -51 16 -24 32 -53 35 -65 4 -13 11 -23 16
-23 5 0 11 -8 15 -19 4 -15 61 -94 104 -147 5 -6 26 -35 47 -65 21 -30 49 -64
61 -77 13 -13 23 -26 23 -30 0 -4 10 -19 23 -34 12 -15 38 -46 57 -69 19 -23
41 -48 48 -55 6 -7 12 -14 12 -16 0 -4 142 -149 222 -225 76 -73 116 -126 110
-147 -2 -4 2 -14 9 -22 6 -8 9 -21 5 -29 -4 -11 -2 -14 6 -9 8 5 9 2 4 -11 -4
-10 -3 -21 2 -24 5 -3 6 -46 2 -96 -4 -49 -3 -94 1 -100 4 -5 7 -21 8 -35 1
-76 20 -93 216 -192 205 -104 452 -166 803 -202 233 -24 590 -17 922 19 175
19 250 39 434 111 512 203 888 513 1154 954 341 565 424 1280 220 1893 -139
418 -464 794 -842 973 -75 35 -101 43 -109 34 -9 -8 -7 -10 8 -5 19 6 19 6 2
-5 -10 -7 -21 -10 -24 -7 -2 3 -21 -6 -40 -19 -20 -13 -42 -24 -49 -24 -7 0
-18 -9 -24 -21 -7 -11 -14 -18 -17 -15 -3 3 -16 -8 -30 -24 -13 -16 -28 -29
-32 -27 -4 1 -26 -17 -50 -41 -23 -23 -46 -40 -52 -37 -5 4 -9 2 -9 -4 0 -6
-13 -17 -30 -26 -16 -9 -30 -13 -30 -10 0 3 -18 -4 -41 -16 -23 -11 -38 -15
-34 -9 4 6 -7 4 -24 -5 -17 -9 -36 -13 -41 -10 -6 3 -10 1 -10 -5 0 -6 -4 -8
-10 -5 -5 3 -10 2 -10 -3 0 -5 -6 -9 -12 -10 -33 -3 -53 -8 -58 -13 -3 -4 -32
-20 -66 -37 -33 -17 -66 -37 -73 -46 -8 -9 -20 -16 -27 -16 -8 0 -14 -4 -14
-10 0 -5 -4 -10 -9 -10 -5 0 -38 -28 -73 -62 -36 -35 -82 -76 -102 -93 -21
-16 -50 -41 -64 -54 -15 -13 -42 -30 -59 -37 -18 -8 -33 -18 -33 -23 0 -9 -68
-40 -102 -46 -9 -2 -25 -8 -35 -13 -10 -5 -24 -7 -30 -5 -7 3 -13 0 -13 -5 0
-9 -39 -15 -98 -14 -18 0 -30 -3 -27 -8 3 -5 -43 -8 -102 -8 -66 0 -101 3 -92
9 9 5 -1 8 -31 8 -89 -1 -120 3 -114 13 4 6 -1 8 -14 4 -11 -4 -23 -2 -27 4
-4 6 -14 9 -22 6 -8 -3 -12 -2 -9 3 3 4 -14 14 -37 21 -50 16 -77 37 -77 60 0
10 -9 20 -20 23 -11 3 -20 10 -20 17 0 6 5 8 12 4 8 -5 9 -2 5 10 -4 10 -7 22
-7 27 0 6 -4 7 -10 4 -6 -4 -10 16 -9 52 1 44 3 52 9 33 6 -18 8 -7 9 43 1 72
0 70 61 69 59 -2 77 -10 89 -41 29 -69 93 -67 308 13 38 14 46 14 113 -5 81
-22 140 -50 231 -109 70 -45 95 -49 132 -20 36 28 49 77 46 171 -3 90 4 102
80 129 124 44 243 116 267 162 36 70 -15 104 -134 89 l-63 -7 48 40 c26 22 67
59 91 81 l42 40 -20 33 -20 33 -33 -25 c-43 -33 -187 -101 -265 -125 -58 -18
-63 -18 -57 -3 4 9 9 32 12 50 7 39 38 66 105 89 26 10 48 20 48 24 0 3 -26 2
-57 -2 -32 -4 -59 -6 -61 -5 -4 4 75 327 82 333 2 2 7 -15 11 -39 10 -66 43
-170 60 -195 20 -28 56 -30 80 -3 18 19 17 20 -2 20 -46 0 -69 53 -89 209 -16
118 -26 151 -47 151 -7 0 -48 -75 -92 -167z m-1025 -573 c10 -6 33 -23 51 -39
l31 -29 -58 14 c-33 7 -76 14 -96 14 -41 0 -49 14 -20 36 20 16 66 18 92 4z
m-590 -9 c51 -9 43 -13 -50 -30 -95 -17 -250 -67 -365 -117 l-100 -43 53 49
c123 111 306 167 462 141z m637 -353 c-3 -8 -6 -5 -6 6 -1 11 2 17 5 13 3 -3
4 -12 1 -19z m-537 -38 c0 -5 -5 -10 -11 -10 -5 0 -7 5 -4 10 3 6 8 10 11 10
2 0 4 -4 4 -10z m2603 -679 c112 -26 178 -78 226 -181 24 -51 26 -65 26 -190
0 -213 -43 -347 -141 -446 -64 -64 -211 -138 -397 -201 -451 -150 -626 -103
-776 210 -102 213 -152 434 -122 544 14 53 85 127 146 153 96 41 418 95 710
119 124 10 264 6 328 -8z"/>
<path d="M1313 3535 c0 -22 2 -30 4 -17 2 12 2 30 0 40 -3 9 -5 -1 -4 -23z"/>
</g>
</svg>
