<?xml version="1.0" standalone="no"?>
<!DOCTYPE svg PUBLIC "-//W3C//DTD SVG 20010904//EN"
 "http://www.w3.org/TR/2001/REC-SVG-20010904/DTD/svg10.dtd">
<svg version="1.0" xmlns="http://www.w3.org/2000/svg"
 width="700.000000pt" height="700.000000pt" viewBox="0 0 700.000000 700.000000"
 preserveAspectRatio="xMidYMid meet">
<metadata>
Created by potrace 1.14, written by Peter Selinger 2001-2017
</metadata>
<g transform="translate(0.000000,700.000000) scale(0.100000,-0.100000)"
fill="#000000" stroke="none">
<path d="M3378 6415 c-2 -1 -46 -5 -98 -8 -542 -31 -1108 -250 -1570 -606
-224 -173 -453 -416 -621 -661 -241 -350 -429 -835 -475 -1225 -4 -27 -8 -52
-9 -55 -8 -13 -19 -227 -19 -360 0 -225 11 -345 50 -545 155 -815 649 -1523
1360 -1953 380 -229 828 -374 1262 -409 154 -12 564 -4 591 11 3 2 33 6 66 10
33 3 114 18 180 31 160 34 146 30 260 66 766 240 1397 774 1754 1488 144 286
233 578 285 931 26 176 26 538 1 730 -55 410 -189 799 -395 1140 -167 278
-403 553 -640 745 -52 42 -104 84 -115 93 -55 44 -263 176 -364 231 -346 185
-717 297 -1121 336 -65 7 -377 15 -382 10z m298 -589 c84 -6 211 -22 235 -30
8 -3 32 -8 54 -11 43 -6 203 -47 271 -70 672 -224 1212 -749 1454 -1415 42
-114 86 -268 100 -352 5 -29 11 -62 14 -73 2 -11 7 -51 11 -90 4 -38 9 -83 11
-100 5 -37 5 -353 0 -380 -2 -11 -7 -51 -12 -90 -4 -38 -8 -72 -9 -75 0 -3 -5
-27 -10 -55 -5 -27 -9 -52 -10 -55 -1 -6 -17 -81 -21 -96 -6 -32 -39 -138 -64
-209 -147 -416 -402 -774 -745 -1046 -55 -43 -104 -83 -110 -87 -42 -33 -230
-143 -320 -187 -265 -129 -490 -192 -820 -230 -54 -7 -364 -7 -405 -1 -14 2
-50 7 -80 10 -450 54 -900 252 -1239 546 -123 107 -183 170 -331 346 -10 12
-54 76 -98 143 -212 320 -342 693 -377 1081 -6 72 -7 363 -1 395 2 11 7 52 11
90 21 214 118 538 225 750 311 615 848 1051 1510 1224 247 64 478 85 756 67z"/>
<path d="M3806 4220 l-719 -719 206 -208 206 -207 723 722 722 722 -204 205
c-113 113 -207 205 -210 205 -3 0 -329 -324 -724 -720z"/>
</g>
</svg>
